<svg xmlns="http://www.w3.org/2000/svg" viewBox="0 0 220.33 64"><defs><style>.cls-1{fill:none;stroke:#231f20;stroke-linecap:round;stroke-linejoin:round;stroke-width:5px;}</style></defs><g id="Layer_2" data-name="Layer 2"><g id="seattle"><path class="cls-1" d="M23.17,7.17s-12-7.34-13.34,4S26.92,36.08,26.5,46.5C25.42,59,20,62,12.5,61.17c-8,0-9.33-10.17-10-12"/><polyline class="cls-1" points="61.83 5.17 38.5 5.17 38.5 60.5 58.5 60.5"/><line class="cls-1" x1="55.83" y1="27.17" x2="38.5" y2="27.17"/><polyline class="cls-1" points="69.17 61.17 87.17 3.83 96.02 33.59 104.5 61.49"/><line class="cls-1" x1="77.83" y1="33.17" x2="96.02" y2="33.17"/><line class="cls-1" x1="105.83" y1="2.5" x2="154.5" y2="2.5"/><line class="cls-1" x1="120.5" y1="61.17" x2="120.5" y2="2.5"/><line class="cls-1" x1="137.17" y1="61.5" x2="137.17" y2="3.42"/><polyline class="cls-1" points="165.17 3.17 165.17 60.5 181.83 60.5"/><polyline class="cls-1" points="216.5 2.5 195.17 2.5 195.17 61.17 217.83 61.17"/><line class="cls-1" x1="216.5" y1="21.83" x2="195.17" y2="21.83"/></g></g></svg>