<svg xmlns="http://www.w3.org/2000/svg" viewBox="0 0 436.32 199.22"><defs><style>.cls-1,.cls-3{fill:none;}.cls-1,.cls-2,.cls-3{stroke:#231f20;}.cls-1{stroke-linecap:round;stroke-linejoin:round;stroke-width:5px;}.cls-2,.cls-4{fill:#231f20;}.cls-2,.cls-3{stroke-miterlimit:10;}.cls-3{stroke-width:10px;}</style></defs><g id="Layer_2" data-name="Layer 2"><g id="kitchen"><polyline class="cls-1" points="88.55 145.42 88.55 172.76 88.55 195.42"/><polyline class="cls-1" points="113.88 144.76 97.21 161.42 88.61 170.03"/><line class="cls-1" x1="117.88" y1="195.42" x2="97.21" y2="161.42"/><line class="cls-1" x1="135.21" y1="145.42" x2="135.21" y2="195.42"/><line class="cls-1" x1="149.21" y1="144.76" x2="175.88" y2="144.76"/><line class="cls-1" x1="161.88" y1="194.09" x2="161.88" y2="145.67"/><path class="cls-1" d="M204.55,146.76s-22-11.34-22.67,26.66,25.33,19.34,25.33,14"/><line class="cls-1" x1="221.21" y1="147.42" x2="221.21" y2="194.76"/><line class="cls-1" x1="250.55" y1="147.42" x2="250.55" y2="194.09"/><line class="cls-1" x1="221.21" y1="162.09" x2="249.71" y2="162.09"/><polyline class="cls-1" points="283.88 144.09 267.21 144.09 267.21 194.76 286.55 194.76"/><line class="cls-1" x1="285.21" y1="160.76" x2="268.13" y2="160.76"/><polyline class="cls-1" points="300.55 193.42 300.55 146.76 333.88 194.76 333.88 147.42"/></g><g id="Layer_11" data-name="Layer 11"><path class="cls-2" d="M55.53,6.13s11,45.67-.66,127.34H75.2S66.2,32.13,71.53,5.8C55.53,5.8,55.53,6.13,55.53,6.13Z"/><path class="cls-2" d="M151.53,5.8s-11,45.67.67,127.34H131.87s9-101.34,3.66-127.67C151.53,5.47,151.53,5.8,151.53,5.8Z"/><path class="cls-2" d="M192.28,5.38s11,45.67-.66,127.34H212S203,31.38,208.28,5.05C192.28,5.05,192.28,5.38,192.28,5.38Z"/><path class="cls-2" d="M279.28,7.38s11,45.67-.66,127.34H299S290,33.38,295.28,7.05C279.28,7.05,279.28,7.38,279.28,7.38Z"/><path class="cls-3" d="M280.87,11.38S365-16.49,366.24,44.26s-78,59.25-78,59.25"/><line class="cls-3" x1="196.74" y1="9.51" x2="260.24" y2="9.51"/><line class="cls-3" x1="197.41" y1="128.18" x2="260.91" y2="128.18"/><path class="cls-4" d="M16.65,103.25A83.91,83.91,0,0,1,8.76,92.73a66.4,66.4,0,0,1-6-11.81A37,37,0,0,1,0,67.59a23.16,23.16,0,0,1,1.11-7,20.9,20.9,0,0,1,3.37-6.4,29.32,29.32,0,0,1,11.27-8.55,58.2,58.2,0,0,1,13.14-4,133.45,133.45,0,0,1,26.76-2c8.89.19,17.72.93,26.49,1.94s17.5,2.32,26.16,3.9,17.28,3.3,25.85,5.24,17.11,3.95,25.6,6.16,17,4.47,25.38,6.89,16.83,4.89,25.21,7.45,16.71,5.25,25,8,16.61,5.54,24.88,8.37S276.77,93.33,285,96.3s16.43,6,24.62,9.07,16.33,6.23,24.48,9.41l24.38,9.64-.4-.13a80.18,80.18,0,0,0,22.65,3.14,78.87,78.87,0,0,0,11.47-1,74,74,0,0,0,11.26-2.65,71.29,71.29,0,0,0,10.75-4.43,63.79,63.79,0,0,0,9.92-6.15,52,52,0,0,0,4.45-3.81,40.24,40.24,0,0,0,3.89-4.36,20,20,0,0,0,2.87-5.06,6.86,6.86,0,0,0,0-5.68,5.65,5.65,0,0,1,1,2.83,9.73,9.73,0,0,1-.29,3,20.71,20.71,0,0,1-2.42,5.61,42.79,42.79,0,0,1-7.86,9.32A68.24,68.24,0,0,1,405,128a78.67,78.67,0,0,1-11.75,3.73c-2,.48-4.05.82-6.09,1.13s-4.11.5-6.17.66a87.27,87.27,0,0,1-24.74-2l-.11,0-.29-.1-24.69-8.65-24.73-8.5-24.76-8.41-24.79-8.27c-8.26-2.73-16.56-5.39-24.84-8.06s-16.59-5.26-24.91-7.81-16.64-5.07-25-7.49-16.7-4.83-25.09-7.09-16.78-4.49-25.2-6.54-16.87-4-25.35-5.8-17-3.42-25.49-4.74S63.91,47.71,55.35,47.2a127.21,127.21,0,0,0-25.46.47,55.53,55.53,0,0,0-12,2.92A24.67,24.67,0,0,0,8,57,18,18,0,0,0,3.57,67.75a34.43,34.43,0,0,0,1.5,12.37A70.26,70.26,0,0,0,9.92,92.07,92.83,92.83,0,0,0,16.65,103.25Z"/></g></g></svg>