<svg xmlns="http://www.w3.org/2000/svg" viewBox="0 0 1011.18 135.22"><defs><style>.cls-1,.cls-3{fill:none;}.cls-1,.cls-2,.cls-3{stroke:#231f20;}.cls-1{stroke-linecap:round;stroke-linejoin:round;stroke-width:5px;}.cls-2,.cls-4{fill:#231f20;}.cls-2,.cls-3{stroke-miterlimit:10;}.cls-3{stroke-width:10px;}</style></defs><g id="Layer_2" data-name="Layer 2"><g id="kitchen"><polyline class="cls-1" points="450.58 13.03 450.58 75.21 450.58 126.77"/><polyline class="cls-1" points="508.21 11.51 470.3 49.43 450.73 69"/><line class="cls-1" x1="517.31" y1="126.77" x2="470.3" y2="49.43"/><line class="cls-1" x1="556.74" y1="13.03" x2="556.74" y2="126.77"/><line class="cls-1" x1="588.59" y1="11.51" x2="649.25" y2="11.51"/><line class="cls-1" x1="617.41" y1="123.74" x2="617.41" y2="13.6"/><path class="cls-1" d="M714.47,16.06S664.42-9.72,662.9,76.73s57.63,44,57.63,31.84"/><line class="cls-1" x1="752.38" y1="17.58" x2="752.38" y2="125.26"/><line class="cls-1" x1="819.11" y1="17.58" x2="819.11" y2="123.74"/><line class="cls-1" x1="752.38" y1="50.94" x2="817.21" y2="50.94"/><polyline class="cls-1" points="894.94 10 857.02 10 857.02 125.26 901 125.26"/><line class="cls-1" x1="897.97" y1="47.91" x2="859.11" y2="47.91"/><polyline class="cls-1" points="932.85 122.22 932.85 16.06 1008.68 125.26 1008.68 17.58"/></g><g id="Layer_11" data-name="Layer 11"><path class="cls-2" d="M55.53,6.13s11,45.67-.66,127.34H75.2S66.2,32.13,71.53,5.8C55.53,5.8,55.53,6.13,55.53,6.13Z"/><path class="cls-2" d="M151.53,5.8s-11,45.67.67,127.34H131.87s9-101.34,3.66-127.67C151.53,5.47,151.53,5.8,151.53,5.8Z"/><path class="cls-2" d="M192.28,5.38s11,45.67-.66,127.34H212S203,31.38,208.28,5.05C192.28,5.05,192.28,5.38,192.28,5.38Z"/><path class="cls-2" d="M279.28,7.38s11,45.67-.66,127.34H299S290,33.38,295.28,7.05C279.28,7.05,279.28,7.38,279.28,7.38Z"/><path class="cls-3" d="M280.87,11.38S365-16.49,366.24,44.26s-78,59.25-78,59.25"/><line class="cls-3" x1="196.74" y1="9.51" x2="260.24" y2="9.51"/><line class="cls-3" x1="197.41" y1="128.18" x2="260.91" y2="128.18"/><path class="cls-4" d="M16.65,103.25A83.91,83.91,0,0,1,8.76,92.73a66.4,66.4,0,0,1-6-11.81A37,37,0,0,1,0,67.59a23.16,23.16,0,0,1,1.11-7,21.07,21.07,0,0,1,3.37-6.41,29.39,29.39,0,0,1,11.27-8.54,58.2,58.2,0,0,1,13.14-4,133.45,133.45,0,0,1,26.76-2c8.9.19,17.72.93,26.49,1.94s17.5,2.32,26.16,3.9c17.32,3.12,34.46,7,51.45,11.4,34,8.76,67.42,19.26,100.51,30.66q24.8,8.56,49.36,17.81c16.36,6.15,32.62,12.58,48.86,19l-.4-.13a80.18,80.18,0,0,0,22.65,3.14,77.61,77.61,0,0,0,22.73-3.6,70.27,70.27,0,0,0,10.75-4.43,63.79,63.79,0,0,0,9.92-6.15,43.9,43.9,0,0,0,8.34-8.17,20,20,0,0,0,2.87-5.06,6.86,6.86,0,0,0,0-5.68,5.65,5.65,0,0,1,1,2.83,9.73,9.73,0,0,1-.29,3,20.71,20.71,0,0,1-2.42,5.61,42.79,42.79,0,0,1-7.86,9.32A68.24,68.24,0,0,1,405,128a76.77,76.77,0,0,1-24,5.52,86.81,86.81,0,0,1-24.73-2l-.13,0-.28-.1c-16.43-5.84-32.93-11.5-49.42-17.15s-33-11.22-49.55-16.68C223.77,86.75,190.55,76.32,157,67.17c-16.76-4.56-33.6-8.78-50.54-12.34s-34-6.58-51.14-7.64a128,128,0,0,0-25.46.48,55.53,55.53,0,0,0-12,2.92A24.67,24.67,0,0,0,8,57,18,18,0,0,0,3.57,67.75a34.21,34.21,0,0,0,1.5,12.37A70.26,70.26,0,0,0,9.92,92.07,92.83,92.83,0,0,0,16.65,103.25Z"/></g></g></svg>