<svg xmlns="http://www.w3.org/2000/svg" viewBox="0 0 512 512"><g id="Layer_2" data-name="Layer 2"><g id="Logo"><circle cx="256" cy="256" r="51.89"/><path d="M377.35,164.19a51.5,51.5,0,0,0-29.54-29.54c-5.49-2.13-13.73-4.67-28.91-5.36-16.41-.75-21.34-.91-62.9-.91s-46.49.16-62.9.91c-15.18.69-23.42,3.23-28.91,5.36a51.5,51.5,0,0,0-29.54,29.54c-2.13,5.49-4.67,13.73-5.36,28.91-.75,16.41-.91,21.34-.91,62.9s.16,46.49.91,62.9c.69,15.18,3.23,23.42,5.36,28.91a51.5,51.5,0,0,0,29.54,29.54c5.49,2.13,13.73,4.67,28.91,5.36,16.41.75,21.33.91,62.9.91s46.49-.16,62.9-.91c15.18-.69,23.42-3.23,28.91-5.36a51.5,51.5,0,0,0,29.54-29.54c2.13-5.49,4.67-13.73,5.36-28.91.75-16.41.91-21.34.91-62.9s-.16-46.49-.91-62.9C382,177.92,379.48,169.68,377.35,164.19ZM256,335.94A79.94,79.94,0,1,1,335.94,256,79.94,79.94,0,0,1,256,335.94Zm83.1-144.36a18.68,18.68,0,1,1,18.68-18.68A18.68,18.68,0,0,1,339.1,191.58Z"/><path d="M256,0C114.62,0,0,114.62,0,256S114.62,512,256,512,512,397.38,512,256,397.38,0,256,0ZM410.73,320.18c-.76,16.57-3.39,27.89-7.24,37.79A79.55,79.55,0,0,1,358,403.49c-9.9,3.85-21.22,6.48-37.79,7.24s-21.9.94-64.18.94-47.58-.18-64.18-.94-27.89-3.39-37.79-7.24A79.55,79.55,0,0,1,108.51,358c-3.85-9.9-6.48-21.22-7.24-37.79s-.94-21.9-.94-64.18.18-47.58.94-64.18,3.39-27.89,7.24-37.79A79.55,79.55,0,0,1,154,108.51c9.9-3.85,21.22-6.48,37.79-7.24s21.9-.94,64.18-.94,47.58.18,64.18.94,27.89,3.39,37.79,7.24A79.55,79.55,0,0,1,403.49,154c3.85,9.9,6.48,21.22,7.24,37.79s.94,21.9.94,64.18S411.49,303.58,410.73,320.18Z"/></g></g></svg>